<?xml version="1.0" encoding="utf-8"?>
<!-- Generator: Adobe Illustrator 24.2.3, SVG Export Plug-In . SVG Version: 6.00 Build 0)  -->
<svg version="1.1" id="Warstwa_1" xmlns="http://www.w3.org/2000/svg" xmlns:xlink="http://www.w3.org/1999/xlink" x="0px" y="0px"
	 viewBox="0 0 266 110.2" style="enable-background:new 0 0 266 110.2;" xml:space="preserve">
<style type="text/css">
	.st0{fill:#E53F43;}
	.st1{fill:#8DC044;}
	.st2{fill:#3281BE;}
	.st3{fill:#122940;}
</style>
<g id="Group_23">
	<path id="Path_15" class="st0" d="M63.3,41.1V16.8H0v63.3h16.5v-39H63.3z"/>
	<path id="Path_16" class="st1" d="M91.3,63.3h41.3V0H69.1v41.1h22.1L91.3,63.3z"/>
	<rect id="Rectangle_4" x="22.2" y="46.8" class="st2" width="63.3" height="63.3"/>
	<g id="Group_20" transform="translate(96.501 3.779)">
		<g id="Group_19">
			<path id="Path_17" class="st3" d="M59.9,37.4v22.1H49.3V2.7h13.8c5.9,0,10.1,1.4,13,4.2c2.7,2.7,4.2,7,4.2,12.7
				c0,7.1-2.4,12.2-7.3,15.1l10.9,24.9H72.6l-8.9-22.2H59.9L59.9,37.4z M59.9,28.4h2.7c2,0.2,4.1-0.6,5.3-2.1
				c1.2-1.8,1.8-4.1,1.7-6.3c0-2.9-0.6-5-1.7-6.2c-1.5-1.4-3.3-2-5.3-1.8h-2.7V28.4z"/>
			<path id="Path_18" class="st3" d="M115.2,31.7h10.4v25.5c-5,2.1-10.3,3.2-15.7,3.2c-6,0.3-11.8-2.6-15.3-7.6
				c-3.6-5-5.3-12.2-5.3-21.8c0-9.1,2.1-16.3,6-21.5c4.1-5.1,9.8-7.7,17.1-7.7c4.5,0,9.1,1.2,13,3.5l-3.3,8.6
				c-2.7-1.7-5.9-2.7-9.1-2.9c-3.9,0-7.6,2-9.5,5.4c-2.3,3.6-3.5,8.5-3.5,14.7c0,6.3,0.9,11.3,2.6,14.7c1.7,3.5,4.2,5.1,7.4,5.1
				c1.8,0,3.5-0.3,5.1-0.6L115.2,31.7z"/>
			<path id="Path_19" class="st3" d="M137,2.7h14.5c5.9,0,10.3,1.2,12.8,3.5c2.6,2.3,4.1,5.9,4.1,10.9c0.2,2.9-0.6,5.7-2.1,8.3
				c-1.2,2.1-3.5,3.6-5.9,4.1v0.5c2.9,0.6,5.3,2.1,7,4.5c1.5,2.7,2.3,5.7,2.1,8.8c0,5.1-1.4,9.2-4.1,12.1c-3,3-7.1,4.5-11.3,4.4
				h-17.2L137,2.7L137,2.7z M147,25.5h4.8c1.8,0.2,3.5-0.5,4.7-1.8c1.1-1.5,1.5-3.5,1.4-5.3c0.2-1.8-0.5-3.6-1.5-5.1
				c-1.4-1.1-3.2-1.7-4.8-1.5H147V25.5z M147,34.4v15.9h5.3c1.8,0.2,3.6-0.6,5-2c1.2-1.8,1.8-4.1,1.7-6.2c0-5.1-2.3-7.6-6.6-7.6
				L147,34.4L147,34.4z"/>
		</g>
	</g>
	<g id="Group_22" transform="translate(65.705 50.485)">
		<g id="Group_21">
			<path id="Path_20" class="st3" d="M33.6,48.3V26.1h8.6v2.3h-5.4v7.4h4.5v2.1h-4.5v8.2h5.6v2.3H33.6L33.6,48.3z"/>
			<path id="Path_21" class="st3" d="M46.7,48.3V26.1h3.2v20.1h5.7v2.3L46.7,48.3L46.7,48.3z"/>
			<path id="Path_22" class="st3" d="M59.7,48.3V26.1h8.6v2.3h-5.6v7.4h4.5v2.1h-4.5v8.2h5.6v2.3H59.7L59.7,48.3z"/>
			<path id="Path_23" class="st3" d="M72.9,48.3V26.1h3v10.6L81,26.1h2.9l-4.4,9.8l5.1,12.4h-3l-4.2-10.4l-1.5,2.6v7.9H72.9
				L72.9,48.3z"/>
			<path id="Path_24" class="st3" d="M90.9,48.3V28.4h-3.8v-2.3h10.6v2.3H94v19.9H90.9z"/>
			<path id="Path_25" class="st3" d="M101.7,48.3V26.1h4.5c1.2,0,2.6,0.2,3.6,0.6c0.9,0.3,1.7,1.1,2.1,2c0.5,1.1,0.8,2.3,0.8,3.5
				c0,0.8-0.2,1.7-0.3,2.4c-0.2,0.6-0.5,1.2-0.9,1.8c-0.5,0.5-1.1,0.9-1.7,1.1l3.2,11.2h-3l-2.7-10.7h-2.4v10.6L101.7,48.3
				L101.7,48.3z M104.9,35.6h1.2c0.8,0,1.5-0.2,2.1-0.3c0.6-0.2,0.9-0.6,1.2-1.2c0.3-0.8,0.5-1.5,0.5-2.3c0.2-1.1-0.2-2-0.8-2.9
				c-0.8-0.6-1.8-1.1-2.9-0.9h-1.4L104.9,35.6L104.9,35.6z"/>
			<path id="Path_26" class="st3" d="M123.8,48.6c-1.2,0-2.6-0.3-3.6-0.9c-0.9-0.6-1.5-1.5-2-2.6c-0.5-1.2-0.6-2.6-0.6-3.8v-8.5
				c0-1.4,0.2-2.6,0.6-3.8c0.3-1.1,1.1-1.8,2-2.4c1.1-0.8,2.3-0.9,3.6-0.9c1.2,0,2.4,0.3,3.6,0.9c0.9,0.6,1.5,1.4,2,2.4
				c0.5,1.2,0.6,2.4,0.6,3.8v8.5c0,1.4-0.2,2.6-0.6,3.8c-0.3,1.1-1.1,2-2,2.6C126.2,48.3,125,48.6,123.8,48.6z M123.8,46.1
				c0.6,0,1.4-0.2,1.8-0.5c0.5-0.3,0.8-0.9,0.9-1.4c0.2-0.8,0.3-1.4,0.2-2.1v-9.8c0-0.8,0-1.5-0.2-2.1c-0.2-0.6-0.5-1.1-0.9-1.4
				c-0.6-0.3-1.2-0.5-1.8-0.5c-0.6,0-1.4,0.2-2,0.5c-0.5,0.3-0.8,0.9-0.9,1.4c-0.2,0.8-0.3,1.4-0.2,2.1v9.8c0,0.8,0,1.5,0.2,2.1
				s0.5,1.1,0.9,1.4C122.5,46.1,123.1,46.2,123.8,46.1L123.8,46.1z"/>
			<path id="Path_27" class="st3" d="M134.8,48.3V26.1h2.1l6.3,14.8V26.1h2.6v22.2h-2l-6.3-15.3v15.3
				C137.6,48.3,134.8,48.3,134.8,48.3z"/>
			<path id="Path_28" class="st3" d="M151.5,48.3V26.1h3v22.2H151.5z"/>
			<path id="Path_29" class="st3" d="M160.1,48.3V26.1h3.2v10.6l5.1-10.6h2.9l-4.4,9.8l5.1,12.4h-3l-4.2-10.4l-1.4,2.6v7.9H160.1
				L160.1,48.3z"/>
			<path id="Path_30" class="st3" d="M174.6,48.3l4.7-22.2h3l4.8,22.2h-2.9l-1.1-5.6h-4.5l-1.1,5.6H174.6z M179,40.5h3.8l-1.8-10
				L179,40.5z"/>
		</g>
	</g>
</g>
</svg>
