<?xml version="1.0" encoding="utf-8"?>
<!-- Generator: Adobe Illustrator 24.0.1, SVG Export Plug-In . SVG Version: 6.00 Build 0)  -->
<svg version="1.1" id="Layer_1" xmlns="http://www.w3.org/2000/svg" xmlns:xlink="http://www.w3.org/1999/xlink" x="0px" y="0px"
	 viewBox="0 0 512 512" style="enable-background:new 0 0 512 512;" xml:space="preserve">
<style type="text/css">
	.st0{fill:#FFFFFF;}
	.st1{fill:#00B0F0;}
</style>
<g>
	<path class="st0" d="M302.4,256c0.6-3.3,0.9-6.8,0.9-10.3c0-32.8-26.5-59.4-59.1-59.4c-3.5,0-6.9,0.3-10.3,0.9
		c-5.1-3-11.1-4.6-17.4-4.6c-19.4,0-35.1,15.8-35.1,35.3c0,6.4,1.7,12.4,4.6,17.5c-0.6,3.3-0.9,6.8-0.9,10.3
		c0,32.8,26.5,59.4,59.1,59.4c3.5,0,6.9-0.3,10.3-0.9c5.1,3,11.1,4.6,17.4,4.6c19.4,0,35.1-15.8,35.1-35.3
		C307.1,267.1,305.4,261.2,302.4,256z"/>
	<g id="XMLID_32_">
		<g id="XMLID_33_">
			<path id="XMLID_35_" class="st1" d="M244.5,283.7c-21,0-30.6-10.7-30.6-18.5c0-4,3.2-6.8,7.2-6.8c9,0,6.6,13.5,23.4,13.5
				c8.6,0,13.6-5.2,13.6-10c0-2.9-1.7-6.2-7.3-7.6l-18.7-4.7c-15-3.8-17.7-12.2-17.7-19.9c0-16.1,14.7-21.9,28.7-21.9
				c12.9,0,28.3,7.1,28.3,16.8c0,4.1-3.5,6.4-7.5,6.4c-7.7,0-6.4-10.8-21.8-10.8c-7.7,0-11.7,3.6-11.7,8.6c0,5,5.9,6.7,11.2,8
				l13.8,3.1c15.1,3.4,19.2,12.3,19.2,20.7C274.6,273.6,264.4,283.7,244.5,283.7 M302.4,256c0.6-3.3,0.9-6.8,0.9-10.3
				c0-32.8-26.5-59.4-59.1-59.4c-3.5,0-6.9,0.3-10.3,0.9c-5.1-3-11.1-4.6-17.4-4.6c-19.4,0-35.1,15.8-35.1,35.3
				c0,6.4,1.7,12.4,4.6,17.5c-0.6,3.3-0.9,6.8-0.9,10.3c0,32.8,26.5,59.4,59.1,59.4c3.5,0,6.9-0.3,10.3-0.9c5.1,3,11.1,4.6,17.4,4.6
				c19.4,0,35.1-15.8,35.1-35.3C307.1,267.1,305.4,261.2,302.4,256"/>
		</g>
	</g>
</g>
</svg>
