<svg xmlns="http://www.w3.org/2000/svg" width="298.057" height="72.795" viewBox="0 0 298.057 72.795"><defs><style>.a{fill:#2398c0;}.b{fill:#0d5379;}</style></defs><g transform="translate(-297.834 -2731.265)"><g transform="translate(297.834 2731.265)"><g transform="translate(0 0)"><path class="a" d="M300.946,2755.9V2734.5h5.661a7.791,7.791,0,0,1,5.977,2.382,9.334,9.334,0,0,1,2.272,6.528v3.469a9.372,9.372,0,0,1-2.227,6.624,7.955,7.955,0,0,1-6.139,2.4Zm4.323-17.805v14.218h1.294a3.627,3.627,0,0,0,3.044-1.14,6.781,6.781,0,0,0,.926-3.933v-3.719a7.6,7.6,0,0,0-.838-4.183,3.382,3.382,0,0,0-2.852-1.242Z" transform="translate(-299.813 -2733.321)"/><path class="a" d="M352.9,2765.291a6.519,6.519,0,0,1-5-1.911,7.69,7.69,0,0,1-1.794-5.469v-1.265a9.046,9.046,0,0,1,1.646-5.808,5.711,5.711,0,0,1,4.72-2.044,5.405,5.405,0,0,1,4.514,1.916,9.139,9.139,0,0,1,1.544,5.674v2.041h-8.278a4.327,4.327,0,0,0,.78,2.591,2.631,2.631,0,0,0,2.132.82,4.676,4.676,0,0,0,3.484-1.426l1.632,2.514a5.374,5.374,0,0,1-2.22,1.713A7.624,7.624,0,0,1,352.9,2765.291Zm-2.617-9.763h4.161v-.382a4.449,4.449,0,0,0-.471-2.161,1.635,1.635,0,0,0-1.529-.735,1.729,1.729,0,0,0-1.581.78A5.367,5.367,0,0,0,350.279,2755.528Z" transform="translate(-328.533 -2742.413)"/><path class="a" d="M391.394,2753.849h-4.176v-22.584h4.176Z" transform="translate(-354.68 -2731.265)"/><path class="a" d="M407.535,2734.44a2.148,2.148,0,0,1,.617-1.588,2.5,2.5,0,0,1,3.293,0,2.151,2.151,0,0,1,.618,1.588,2.265,2.265,0,1,1-4.528,0Zm4.367,20.025h-4.176v-15.908H411.9Z" transform="translate(-367.601 -2731.882)"/><path class="a" d="M431.59,2759.63,433.6,2749.6h4.337l-4.366,15.908H429.6l-4.381-15.908h4.353Z" transform="translate(-378.85 -2742.928)"/><path class="a" d="M470.792,2765.291a6.52,6.52,0,0,1-5-1.911A7.69,7.69,0,0,1,464,2757.91v-1.265a9.046,9.046,0,0,1,1.646-5.808,5.71,5.71,0,0,1,4.72-2.044,5.405,5.405,0,0,1,4.514,1.916,9.139,9.139,0,0,1,1.544,5.674v2.041h-8.278a4.326,4.326,0,0,0,.78,2.591,2.632,2.632,0,0,0,2.132.82,4.676,4.676,0,0,0,3.484-1.426l1.632,2.514a5.376,5.376,0,0,1-2.22,1.713A7.621,7.621,0,0,1,470.792,2765.291Zm-2.618-9.763h4.161v-.382a4.453,4.453,0,0,0-.471-2.161,1.636,1.636,0,0,0-1.529-.735,1.728,1.728,0,0,0-1.58.78A5.366,5.366,0,0,0,468.174,2755.528Z" transform="translate(-403.511 -2742.413)"/><path class="a" d="M512.416,2753.1l-1.382-.117a2.271,2.271,0,0,0-2.309,1.5V2765h-4.175v-15.908h3.925l.118,1.72a3.014,3.014,0,0,1,2.72-2.014,2.92,2.92,0,0,1,1.147.191Z" transform="translate(-429.301 -2742.413)"/><path class="a" d="M535.608,2758.586l2.117-8.983h4.441l-5.234,18.29q-1.177,4.044-4.425,4.044a6.141,6.141,0,0,1-1.705-.28v-3.249l.485.014a2.393,2.393,0,0,0,1.463-.375,2.351,2.351,0,0,0,.743-1.3l.323-1.073-4.587-16.07H533.7Z" transform="translate(-444.994 -2742.928)"/><path class="a" d="M595.481,2765a5.782,5.782,0,0,1-.353-1.235,3.556,3.556,0,0,1-3.029,1.529,4.482,4.482,0,0,1-3.315-1.323,4.646,4.646,0,0,1-1.317-3.426,4.816,4.816,0,0,1,1.6-3.867,6.978,6.978,0,0,1,4.594-1.4h1.264V2754a2.4,2.4,0,0,0-.367-1.514,1.317,1.317,0,0,0-1.073-.441q-1.558,0-1.558,1.823h-4.161a4.606,4.606,0,0,1,1.654-3.639,6.157,6.157,0,0,1,4.183-1.434,5.654,5.654,0,0,1,4.051,1.36,5.1,5.1,0,0,1,1.434,3.888v7.484a7.829,7.829,0,0,0,.588,3.22v.25Zm-2.455-2.97a2.318,2.318,0,0,0,1.176-.28,1.967,1.967,0,0,0,.72-.662v-3.308h-1a2.136,2.136,0,0,0-1.669.676,2.6,2.6,0,0,0-.61,1.808Q591.643,2762.027,593.025,2762.027Z" transform="translate(-482.034 -2742.413)"/><path class="a" d="M632.531,2761.835q1.808,0,1.838-2.352h3.91a5.847,5.847,0,0,1-1.6,4.205,5.438,5.438,0,0,1-4.057,1.6,5.8,5.8,0,0,1-4.69-1.911,8.624,8.624,0,0,1-1.647-5.631v-1.265a8.9,8.9,0,0,1,1.6-5.719,5.7,5.7,0,0,1,4.712-1.971,5.393,5.393,0,0,1,4.146,1.625,6.613,6.613,0,0,1,1.543,4.61h-3.91a4.168,4.168,0,0,0-.442-2.059,1.511,1.511,0,0,0-1.411-.72,1.681,1.681,0,0,0-1.558.772,6.582,6.582,0,0,0-.5,2.992v1.617a12.958,12.958,0,0,0,.191,2.713,2.032,2.032,0,0,0,.632,1.132A1.924,1.924,0,0,0,632.531,2761.835Z" transform="translate(-506.72 -2742.413)"/><path class="a" d="M673.529,2753.1l-1.381-.117a2.27,2.27,0,0,0-2.309,1.5V2765h-4.175v-15.908h3.925l.118,1.72a3.014,3.014,0,0,1,2.72-2.014,2.92,2.92,0,0,1,1.147.191Z" transform="translate(-531.765 -2742.413)"/><path class="a" d="M690.342,2756.528a8.634,8.634,0,0,1,1.706-5.675,6.472,6.472,0,0,1,9.468,0,8.689,8.689,0,0,1,1.706,5.7v1.014a8.653,8.653,0,0,1-1.691,5.676,6.523,6.523,0,0,1-9.49-.008,8.682,8.682,0,0,1-1.7-5.7Zm4.175,1.044q0,4.264,2.279,4.264,2.1,0,2.264-3.558l.015-1.75a6.69,6.69,0,0,0-.6-3.227,1.878,1.878,0,0,0-1.705-1.051,1.83,1.83,0,0,0-1.654,1.051,6.768,6.768,0,0,0-.6,3.227Z" transform="translate(-547.46 -2742.413)"/><path class="a" d="M738.718,2760.733a1.3,1.3,0,0,0-.508-.978,10,10,0,0,0-2.257-1.213,9.386,9.386,0,0,1-3.535-2.161,4.1,4.1,0,0,1-.964-2.779,4.44,4.44,0,0,1,1.507-3.448,5.73,5.73,0,0,1,3.992-1.36,6.205,6.205,0,0,1,4.19,1.353,4.548,4.548,0,0,1,1.573,3.632h-4.161q0-1.941-1.617-1.941a1.5,1.5,0,0,0-1.088.412,1.519,1.519,0,0,0-.427,1.147,1.2,1.2,0,0,0,.47.933,10.288,10.288,0,0,0,2.22,1.154,9.192,9.192,0,0,1,3.595,2.1,4.273,4.273,0,0,1,1.051,2.992,4.183,4.183,0,0,1-1.6,3.426,6.49,6.49,0,0,1-4.205,1.294,6.7,6.7,0,0,1-3.087-.684,5.181,5.181,0,0,1-2.1-1.9,4.9,4.9,0,0,1-.757-2.632h3.955a2.52,2.52,0,0,0,.508,1.632,1.985,1.985,0,0,0,1.565.544Q738.717,2762.247,738.718,2760.733Z" transform="translate(-573.325 -2742.413)"/><path class="a" d="M776.279,2760.733a1.3,1.3,0,0,0-.508-.978,10,10,0,0,0-2.257-1.213,9.386,9.386,0,0,1-3.535-2.161,4.1,4.1,0,0,1-.964-2.779,4.44,4.44,0,0,1,1.507-3.448,5.73,5.73,0,0,1,3.992-1.36,6.205,6.205,0,0,1,4.19,1.353,4.548,4.548,0,0,1,1.573,3.632h-4.161q0-1.941-1.617-1.941a1.5,1.5,0,0,0-1.088.412,1.519,1.519,0,0,0-.427,1.147,1.2,1.2,0,0,0,.47.933,10.289,10.289,0,0,0,2.22,1.154,9.192,9.192,0,0,1,3.595,2.1,4.272,4.272,0,0,1,1.051,2.992,4.183,4.183,0,0,1-1.6,3.426,6.49,6.49,0,0,1-4.205,1.294,6.7,6.7,0,0,1-3.087-.684,5.181,5.181,0,0,1-2.1-1.9,4.9,4.9,0,0,1-.757-2.632h3.955a2.52,2.52,0,0,0,.508,1.632,1.985,1.985,0,0,0,1.565.544Q776.278,2762.247,776.279,2760.733Z" transform="translate(-597.213 -2742.413)"/><path class="b" d="M307.817,2839.287v6.509h3.547v5.187h-3.547v13.159a3.885,3.885,0,0,0,.428,2.157,1.934,1.934,0,0,0,1.652.588,6.44,6.44,0,0,0,1.64-.172l-.048,5.383a10.778,10.778,0,0,1-3.818.661q-6.7,0-6.777-7.692v-14.085h-3.058V2845.8h3.058v-6.509Z" transform="translate(-297.834 -2799.964)"/><path class="b" d="M351.875,2840.083a6.84,6.84,0,0,1,5.53-2.813,6.427,6.427,0,0,1,5.506,2.544q1.883,2.546,1.908,7.585v16.834H357.87v-16.76a6.044,6.044,0,0,0-.721-3.365,2.643,2.643,0,0,0-2.337-1.039,3.27,3.27,0,0,0-2.936,1.737v19.427h-6.924v-37.582h6.924Z" transform="translate(-327.799 -2791.928)"/><path class="b" d="M422.8,2883.274q-5.334,0-8.319-3.181t-2.985-9.1v-2.1q0-6.264,2.74-9.665a9.5,9.5,0,0,1,7.854-3.4q4.991,0,7.511,3.188t2.57,9.443v3.4H418.394a7.205,7.205,0,0,0,1.3,4.313,4.384,4.384,0,0,0,3.548,1.363,7.785,7.785,0,0,0,5.8-2.373l2.715,4.184a8.948,8.948,0,0,1-3.694,2.851A12.7,12.7,0,0,1,422.8,2883.274Zm-4.356-16.246h6.925v-.637a7.4,7.4,0,0,0-.783-3.6,2.724,2.724,0,0,0-2.545-1.224,2.879,2.879,0,0,0-2.63,1.3A8.942,8.942,0,0,0,418.442,2867.028Z" transform="translate(-370.119 -2810.479)"/><path class="b" d="M527.1,2872.019l2.373-14.852H536.1l-5.481,26.474h-5.75l-3.743-15.317-3.744,15.317h-5.775l-5.481-26.474h6.655l2.349,14.876,3.523-14.876h4.919Z" transform="translate(-430.306 -2811.335)"/><path class="b" d="M595.662,2868.692q0-6.02,2.838-9.445a10.773,10.773,0,0,1,15.758,0q2.837,3.426,2.837,9.493v1.688q0,6.043-2.813,9.444a10.856,10.856,0,0,1-15.794-.012q-2.826-3.413-2.826-9.482Zm6.948,1.737q0,7.1,3.793,7.1,3.5,0,3.768-5.92l.024-2.912a11.146,11.146,0,0,0-1-5.371,3.126,3.126,0,0,0-2.838-1.75,3.046,3.046,0,0,0-2.753,1.75,11.258,11.258,0,0,0-.992,5.371Z" transform="translate(-487.245 -2810.479)"/><path class="b" d="M679.4,2862.991l-2.3-.2a3.779,3.779,0,0,0-3.842,2.5v17.495h-6.948v-26.474h6.532l.2,2.863q1.639-3.353,4.526-3.353a4.862,4.862,0,0,1,1.909.318Z" transform="translate(-532.173 -2810.479)"/><path class="b" d="M719.834,2864.233h-6.949v-37.582h6.949Z" transform="translate(-561.796 -2791.928)"/><path class="b" d="M744.139,2850.188q0-6.507,2.2-9.714a7.29,7.29,0,0,1,6.41-3.205,6.181,6.181,0,0,1,5.089,2.643v-13.262h6.974v37.582h-6.289l-.318-2.692a6.376,6.376,0,0,1-5.481,3.181,7.228,7.228,0,0,1-6.35-3.181q-2.19-3.179-2.239-9.346Zm6.949,1.738q0,3.914.832,5.468a2.93,2.93,0,0,0,2.813,1.554,3.375,3.375,0,0,0,3.108-1.835v-12.087a3.3,3.3,0,0,0-3.083-1.957,2.98,2.98,0,0,0-2.789,1.542q-.881,1.541-.881,5.481Z" transform="translate(-581.673 -2791.928)"/></g></g><g transform="translate(499.694 2733.813)"><path class="b" d="M1067.128,2786.583a2.6,2.6,0,0,1-1.657-4.609c6.042-4.986,6.727-7.709,6.491-8.27-.332-.789-3.545-2.434-14.271-.6a2.6,2.6,0,1,1-.877-5.13c11.54-1.972,18.062-.758,19.944,3.71,1.6,3.8-1.08,8.616-7.975,14.3A2.593,2.593,0,0,1,1067.128,2786.583Z" transform="translate(-981.01 -2756.578)"/><path class="a" d="M923.386,2738.265a35.023,35.023,0,1,0,35.022,35.023A35.062,35.062,0,0,0,923.386,2738.265ZM891.379,2774.9h11.309a64,64,0,0,0,2.008,13.288h-9.67A31.809,31.809,0,0,1,891.379,2774.9Zm25.639-32.9-.1-.108a32.007,32.007,0,0,1,4.981-.619v14.388H908.589A38.668,38.668,0,0,1,917.018,2742Zm21.166,13.661h-13.31v-14.388a32,32,0,0,1,4.981.619l-.1.108A38.676,38.676,0,0,1,938.184,2755.664Zm1,2.974a47.951,47.951,0,0,1,1.977,13.288h-16.29v-13.288Zm-17.287,0v13.288h-16.29a47.96,47.96,0,0,1,1.977-13.288Zm-19.257,13.288h-11.27a31.811,31.811,0,0,1,3.524-13.288h9.591A51.466,51.466,0,0,0,902.642,2771.927Zm3.018,2.973H921.9v13.288H907.778A61.859,61.859,0,0,1,905.661,2774.9Zm16.239,16.262V2805.3a31.854,31.854,0,0,1-8.019-1.4,84.776,84.776,0,0,1-5.234-12.734Zm2.974,0h13.253a84.747,84.747,0,0,1-5.234,12.734,31.857,31.857,0,0,1-8.019,1.4Zm0-2.974V2774.9h16.239A61.875,61.875,0,0,1,939,2788.188Zm19.212-13.288h11.309a31.811,31.811,0,0,1-3.647,13.288h-9.67A63.984,63.984,0,0,0,944.085,2774.9Zm.046-2.973a51.471,51.471,0,0,0-1.846-13.288h9.591a31.806,31.806,0,0,1,3.524,13.288Zm6.005-16.262H941.35a45.64,45.64,0,0,0-6.492-12.294A32.216,32.216,0,0,1,950.136,2755.664Zm-38.22-12.294a45.658,45.658,0,0,0-6.492,12.294h-8.786A32.218,32.218,0,0,1,911.915,2743.37ZM896.8,2791.162h8.73a84.35,84.35,0,0,0,4.278,11.146A32.261,32.261,0,0,1,896.8,2791.162Zm40.167,11.146a84.423,84.423,0,0,0,4.278-11.146h8.73A32.26,32.26,0,0,1,936.966,2802.308Z" transform="translate(-875.256 -2738.265)"/><g transform="translate(0 35.116)"><path class="b" d="M1032.98,2844.32l4.284-8.324a.658.658,0,0,0-.564-.959l-9.358-.306a.659.659,0,0,0-.589.992l5.073,8.63A.658.658,0,0,0,1032.98,2844.32Z" transform="translate(-963.21 -2834.73)"/><path class="b" d="M924.533,2836.926a2.6,2.6,0,0,0-3.532-1.033,184,184,0,0,1-16.861,8.1c-11.892,5.01-23.52,8.582-32.742,10.058-10.28,1.645-13.438.012-13.734-.689-.567-1.346,1.421-4.771,8.751-10.07a34.891,34.891,0,0,1-.839-5.309,2.583,2.583,0,0,0-1.336.467c-6.128,4.313-13.973,10.76-11.373,16.932,1.283,3.046,4.935,4.575,10.892,4.575a54.357,54.357,0,0,0,8.459-.768c9.622-1.539,21.675-5.233,33.941-10.4a189.349,189.349,0,0,0,17.34-8.327A2.6,2.6,0,0,0,924.533,2836.926Z" transform="translate(-852.357 -2835.266)"/></g></g></g></svg>